{
	"asset":{
		"version":"2.0",
		"generator":"Created using the official Cinema 4D glTF Exporter 1.000x284978"
	},
	"scenes":[{
		"nodes":[0,
		1]
	}],
	"images":[{
		"uri":"data:image/jpeg;base64,"
	}],
	"nodes":[{
		"name":"Box008",
		"translation":[-1.1798133850097657,
		2.814896583557129,
		-0.055812109261751178],
		"rotation":[-0.5,
		-0.5,
		0.5,
		-0.5],
		"scale":[1.1200000047683716,
		0.7991546988487244,
		1.1200000047683716],
		"children":[2,
		3]
	},
	{
		"name":"Box009",
		"mesh":0,
		"translation":[1.1904113292694092,
		-0.45797014236450198,
		-0.055812109261751178],
		"rotation":[-0.5,
		-0.5,
		0.5,
		-0.5],
		"scale":[1.1200000047683716,
		0.7991546988487244,
		1.1200000047683716]
	},
	{
		"name":"Box008-只用这个木头材质",
		"mesh":1,
		"translation":[-1.1798133850097657,
		2.814896583557129,
		-0.055812109261751178],
		"rotation":[-0.5,
		-0.5,
		0.5,
		-0.5],
		"scale":[1.1200000047683716,
		0.7991546988487244,
		1.1200000047683716]
	},
	{
		"name":"Box008-只用这个木头材质",
		"mesh":2
	}],
	"meshes":[{
		"name":"Box009",
		"primitives":[{
			"attributes":{
				"POSITION":3,
				"NORMAL":4,
				"TEXCOORD_0":5
			},
			"indices":2,
			"material":0
		}]
	},
	{
		"name":"Box008-只用这个木头材质",
		"primitives":[{
			"attributes":{
				"POSITION":9,
				"NORMAL":10,
				"TEXCOORD_0":11
			},
			"indices":8,
			"material":0
		}]
	},
	{
		"name":"Box008-只用这个木头材质",
		"primitives":[{
			"attributes":{
				"POSITION":15,
				"NORMAL":16,
				"TEXCOORD_0":17
			},
			"indices":14,
			"material":0
		}]
	}],
	"accessors":[{
		"bufferView":0,
		"type":"SCALAR",
		"componentType":5126,
		"count":1352,
		"byteOffset":0,
		"min":[0.0],
		"max":[54.040000915527347]
	},
	{
		"bufferView":0,
		"type":"VEC3",
		"componentType":5126,
		"count":1352,
		"byteOffset":5408,
		"min":[-1.5,
		2.814896583557129,
		-0.055812109261751178],
		"max":[-0.9177648425102234,
		2.814896583557129,
		-0.055812109261751178]
	},
	{
		"bufferView":1,
		"type":"SCALAR",
		"componentType":5123,
		"count":276,
		"byteOffset":0,
		"min":[0],
		"max":[115]
	},
	{
		"bufferView":2,
		"type":"VEC3",
		"componentType":5126,
		"count":116,
		"byteOffset":0,
		"min":[-0.76280677318573,
		-1.1442102193832398,
		-0.003990734461694956],
		"max":[0.7664780616760254,
		1.1442102193832398,
		1.2713446617126465]
	},
	{
		"bufferView":2,
		"type":"VEC3",
		"componentType":5126,
		"count":116,
		"byteOffset":12,
		"min":[-1.0,
		-1.0,
		-1.0],
		"max":[1.0,
		1.0,
		1.0]
	},
	{
		"bufferView":2,
		"type":"VEC2",
		"componentType":5126,
		"count":116,
		"byteOffset":24,
		"min":[0.0,
		0.0],
		"max":[1.0,
		1.0]
	},
	{
		"bufferView":3,
		"type":"SCALAR",
		"componentType":5126,
		"count":1352,
		"byteOffset":0,
		"min":[0.0],
		"max":[54.040000915527347]
	},
	{
		"bufferView":3,
		"type":"VEC3",
		"componentType":5126,
		"count":1352,
		"byteOffset":5408,
		"min":[0.9370363354682922,
		-0.45797014236450198,
		-0.055812109261751178],
		"max":[1.5,
		-0.45797014236450198,
		-0.055812109261751178]
	},
	{
		"bufferView":4,
		"type":"SCALAR",
		"componentType":5123,
		"count":6,
		"byteOffset":0,
		"min":[0],
		"max":[3]
	},
	{
		"bufferView":5,
		"type":"VEC3",
		"componentType":5126,
		"count":4,
		"byteOffset":0,
		"min":[-0.76280677318573,
		1.1442102193832398,
		0.3188956081867218],
		"max":[-0.76280677318573,
		1.991773247718811,
		0.9524490237236023]
	},
	{
		"bufferView":5,
		"type":"VEC3",
		"componentType":5126,
		"count":4,
		"byteOffset":12,
		"min":[-1.0,
		0.0,
		0.0],
		"max":[-1.0,
		0.0,
		0.0]
	},
	{
		"bufferView":5,
		"type":"VEC2",
		"componentType":5126,
		"count":4,
		"byteOffset":24,
		"min":[-0.4958866536617279,
		0.02377547323703766],
		"max":[-0.07210509479045868,
		0.3405521512031555]
	},
	{
		"bufferView":6,
		"type":"SCALAR",
		"componentType":5126,
		"count":1352,
		"byteOffset":0,
		"min":[0.0],
		"max":[54.040000915527347]
	},
	{
		"bufferView":6,
		"type":"VEC3",
		"componentType":5126,
		"count":1352,
		"byteOffset":5408,
		"min":[-1.5,
		2.814896583557129,
		-0.055812109261751178],
		"max":[-0.9177648425102234,
		2.814896583557129,
		-0.055812109261751178]
	},
	{
		"bufferView":7,
		"type":"SCALAR",
		"componentType":5123,
		"count":246,
		"byteOffset":0,
		"min":[0],
		"max":[107]
	},
	{
		"bufferView":8,
		"type":"VEC3",
		"componentType":5126,
		"count":108,
		"byteOffset":0,
		"min":[-0.76280677318573,
		-1.1442102193832398,
		4.949865329129569e-18],
		"max":[0.76280677318573,
		1.991773247718811,
		1.2713446617126465]
	},
	{
		"bufferView":8,
		"type":"VEC3",
		"componentType":5126,
		"count":108,
		"byteOffset":12,
		"min":[-1.0,
		-1.0,
		-1.0],
		"max":[1.0,
		1.0,
		1.0]
	},
	{
		"bufferView":8,
		"type":"VEC2",
		"componentType":5126,
		"count":108,
		"byteOffset":24,
		"min":[0.0,
		0.0],
		"max":[1.0,
		1.0]
	}],
	"bufferViews":[{
		"buffer":0,
		"byteOffset":0,
		"byteLength":21632
	},
	{
		"buffer":1,
		"byteOffset":0,
		"byteLength":552,
		"target":34963
	},
	{
		"buffer":1,
		"byteOffset":552,
		"byteLength":3712,
		"target":34962,
		"byteStride":32
	},
	{
		"buffer":2,
		"byteOffset":0,
		"byteLength":21632
	},
	{
		"buffer":3,
		"byteOffset":0,
		"byteLength":12,
		"target":34963
	},
	{
		"buffer":3,
		"byteOffset":12,
		"byteLength":128,
		"target":34962,
		"byteStride":32
	},
	{
		"buffer":4,
		"byteOffset":0,
		"byteLength":21632
	},
	{
		"buffer":5,
		"byteOffset":0,
		"byteLength":492,
		"target":34963
	},
	{
		"buffer":5,
		"byteOffset":492,
		"byteLength":3456,
		"target":34962,
		"byteStride":32
	}],
	"buffers":[{
		"uri":"data:application/octet-stream;base64,",
		"byteLength":21632
	},
	{
		"uri":"data:application/octet-stream;base64,",
		"byteLength":4264
	},
	{
		"uri":"data:application/octet-stream;base64,",
		"byteLength":21632
	},
	{
		"uri":"data:application/octet-stream;base64,",
		"byteLength":140
	},
	{
		"uri":"data:application/octet-stream;base64,",
		"byteLength":21632
	},
	{
		"uri":"data:application/octet-stream;base64,",
		"byteLength":3948
	}],
	"samplers":[{
		"magFilter":9729,
		"minFilter":9729,
		"wrapS":10497,
		"wrapT":10497
	}],
	"textures":[{
		"sampler":0,
		"source":0
	}],
	"materials":[{
		"pbrMetallicRoughness":{
			"baseColorTexture":{
				"index":0
			},
			"baseColorFactor":[1.0,
			1.0,
			1.0,
			1.0],
			"metallicFactor":0.0,
			"roughnessFactor":0.5
		},
		"emissiveFactor":[0.0,
		0.0,
		0.0],
		"alphaMode":"OPAQUE",
		"doubleSided":false,
		"name":"只用这个木头材质"
	}],
	"animations":[{
		"samplers":[{
			"input":0,
			"interpolation":"LINEAR",
			"output":1
		},
		{
			"input":6,
			"interpolation":"LINEAR",
			"output":7
		},
		{
			"input":12,
			"interpolation":"LINEAR",
			"output":13
		}],
		"channels":[{
			"target":{
				"node":0,
				"path":"translation"
			},
			"sampler":0
		},
		{
			"target":{
				"node":1,
				"path":"translation"
			},
			"sampler":1
		},
		{
			"target":{
				"node":2,
				"path":"translation"
			},
			"sampler":2
		}]
	}]
}