{
	"asset":{
		"version":"2.0",
		"generator":"Created using the official Cinema 4D glTF Exporter 1.000x284978"
	},
	"scenes":[{
		"nodes":[0]
	}],
	"nodes":[{
		"name":"抬梁式",
		"mesh":0,
		"translation":[0.0,
		0.0,
		0.0],
		"rotation":[0.7071067690849304,
		0.0,
		0.0,
		-0.7071067690849304],
		"scale":[1.0,
		1.0,
		1.0]
	}],
	"meshes":[{
		"name":"抬梁式",
		"primitives":[{
			"attributes":{
				"POSITION":1,
				"NORMAL":2,
				"TEXCOORD_0":3
			},
			"indices":0,
			"material":0
		}]
	}],
	"accessors":[{
		"bufferView":0,
		"type":"SCALAR",
		"componentType":5123,
		"count":33384,
		"byteOffset":0,
		"min":[0],
		"max":[18194]
	},
	{
		"bufferView":1,
		"type":"VEC3",
		"componentType":5126,
		"count":18195,
		"byteOffset":0,
		"min":[-2.8196680545806886,
		-0.7814381122589111,
		-0.2974344491958618],
		"max":[2.78220272064209,
		0.7829877734184265,
		0.4308777153491974]
	},
	{
		"bufferView":1,
		"type":"VEC3",
		"componentType":5126,
		"count":18195,
		"byteOffset":12,
		"min":[-1.0,
		-1.0,
		-1.0],
		"max":[1.0,
		1.0,
		1.0]
	},
	{
		"bufferView":1,
		"type":"VEC2",
		"componentType":5126,
		"count":18195,
		"byteOffset":24,
		"min":[-0.8123517632484436,
		0.10919272899627686],
		"max":[1.7045621871948243,
		0.8900324106216431]
	}],
	"bufferViews":[{
		"buffer":0,
		"byteOffset":0,
		"byteLength":66768,
		"target":34963
	},
	{
		"buffer":0,
		"byteOffset":66768,
		"byteLength":582240,
		"target":34962,
		"byteStride":32
	}],
	"buffers":[{
		"uri":"data:application/octet-stream;base64,",
		"byteLength":649008
	}],
	"images":[{
		"uri":"data:image/jpeg;base64,"
	}],
	"samplers":[{
		"magFilter":9729,
		"minFilter":9729,
		"wrapS":10497,
		"wrapT":10497
	}],
	"textures":[{
		"sampler":0,
		"source":0
	}],
	"materials":[{
		"pbrMetallicRoughness":{
			"baseColorTexture":{
				"index":0
			},
			"baseColorFactor":[1.0,
			1.0,
			1.0,
			1.0],
			"metallicFactor":0.0,
			"roughnessFactor":0.5
		},
		"emissiveFactor":[0.0,
		0.0,
		0.0],
		"alphaMode":"OPAQUE",
		"doubleSided":false,
		"name":"只用这个木头材质"
	}]
}
